<svg xmlns="http://www.w3.org/2000/svg" xmlns:xlink="http://www.w3.org/1999/xlink" width="214" height="64" viewBox="0 0 214 64" fill="none"><g opacity="1"  transform="translate(0 0)  rotate(0)"><g opacity="1"  transform="translate(0 0)  rotate(0)"><mask id="bg-mask-0" fill="white"><use transform="translate(0 0)  rotate(0)" xlink:href="#path_0"></use></mask><g mask="url(#bg-mask-0)" ><path id="路径 1" fill-rule="evenodd" style="fill:#383838" opacity="1" d="M42.3701,41.0314l-8.69,-6.73l-0.02,12.26zM33.6901,16.9514l-0.01,12.19l8.69,-5.85zM18.2201,21.0614l0.62,-0.78c0.01,-0.02 0.02,-0.03 0.03,-0.04c0.01,-0.01 0.02,-0.02 0.03,-0.04c0.02,-0.01 0.03,-0.02 0.04,-0.03c0.01,-0.01 0.02,-0.02 0.04,-0.03c0.01,-0.01 0.02,-0.02 0.03,-0.03c0.02,-0.01 0.03,-0.02 0.04,-0.03c0.02,-0.01 0.03,-0.02 0.04,-0.03c0.02,-0.01 0.03,-0.01 0.04,-0.02c0.02,-0.01 0.03,-0.02 0.05,-0.03c0.01,0 0.03,-0.01 0.04,-0.02c0.02,0 0.03,-0.01 0.05,-0.01c0.01,-0.01 0.03,-0.02 0.04,-0.02c0.02,-0.01 0.03,-0.01 0.05,-0.01c0.02,-0.01 0.03,-0.01 0.05,-0.02c0.01,0 0.03,0 0.04,-0.01c0.02,0 0.04,0 0.05,0c0.02,0 0.03,-0.01 0.05,-0.01c0.02,0 0.03,0 0.05,0c0.02,0 0.03,0 0.05,0c0.01,0 0.03,0 0.05,0c0.01,0 0.03,0.01 0.05,0.01c0.01,0 0.03,0 0.04,0.01c0.02,0 0.04,0 0.05,0c0.02,0.01 0.03,0.01 0.05,0.02c0.01,0 0.03,0.01 0.04,0.01c0.02,0.01 0.04,0.01 0.05,0.02c0.02,0 0.03,0.01 0.05,0.02c0.01,0 0.02,0.01 0.04,0.02c0.01,0 0.03,0.01 0.04,0.02c0.02,0.01 0.03,0.02 0.04,0.02c0.02,0.01 0.03,0.02 0.04,0.03c0.02,0.01 0.03,0.02 0.04,0.03l10.43,8.07l0.01,-15.18c0,-0.03 0.01,-0.05 0.01,-0.07c0,-0.02 0,-0.05 0,-0.07c0.01,-0.02 0.01,-0.04 0.02,-0.07c0,-0.02 0.01,-0.04 0.01,-0.06c0.01,-0.03 0.02,-0.05 0.02,-0.07c0.01,-0.02 0.02,-0.04 0.03,-0.06c0.01,-0.02 0.02,-0.04 0.03,-0.06c0.01,-0.03 0.02,-0.05 0.03,-0.06c0.02,-0.02 0.03,-0.04 0.04,-0.06c0.01,-0.02 0.03,-0.04 0.04,-0.06c0.02,-0.01 0.03,-0.03 0.05,-0.05c0.01,-0.01 0.03,-0.03 0.05,-0.05c0.01,-0.01 0.03,-0.03 0.05,-0.04c0.02,-0.02 0.04,-0.03 0.06,-0.04c0.01,-0.01 0.03,-0.03 0.05,-0.04c0.02,-0.01 0.04,-0.02 0.06,-0.03c0.02,-0.01 0.04,-0.02 0.07,-0.03c0.02,-0.01 0.04,-0.02 0.06,-0.03c0.02,0 0.04,-0.01 0.07,-0.02c0.02,0 0.04,-0.01 0.06,-0.01c0.02,-0.01 0.05,-0.01 0.07,-0.01c0.02,-0.01 0.05,-0.01 0.07,-0.01c0.02,0 0.04,0 0.07,0c0.02,0 0.04,0 0.07,0c0.02,0.01 0.04,0.01 0.06,0.01c0.03,0 0.05,0.01 0.07,0.01c0.02,0.01 0.05,0.01 0.07,0.02c0.02,0.01 0.04,0.01 0.06,0.02c0.03,0.01 0.05,0.02 0.07,0.03c0.02,0.01 0.04,0.02 0.06,0.03c0.02,0.01 0.04,0.02 0.06,0.03c0.02,0.02 0.04,0.03 0.05,0.04l14.17,10.36c0.02,0.01 0.04,0.03 0.05,0.04c0.02,0.01 0.03,0.02 0.05,0.04c0.01,0.01 0.03,0.03 0.04,0.04c0.01,0.01 0.03,0.03 0.04,0.04c0.01,0.02 0.03,0.04 0.04,0.05c0.01,0.02 0.02,0.03 0.03,0.05c0.01,0.02 0.02,0.03 0.03,0.05c0.01,0.02 0.02,0.04 0.03,0.05c0.01,0.02 0.02,0.04 0.03,0.06c0,0.02 0.01,0.04 0.02,0.05c0,0.02 0.01,0.04 0.02,0.06c0,0.02 0.01,0.04 0.01,0.06c0.01,0.02 0.01,0.04 0.01,0.06c0.01,0.02 0.01,0.04 0.01,0.06c0,0.02 0,0.04 0,0.06c0.01,0.02 0.01,0.04 0.01,0.06c0,0.02 -0.01,0.04 -0.01,0.06c0,0.02 0,0.04 0,0.06c-0.01,0.02 -0.01,0.04 -0.01,0.06c-0.01,0.02 -0.01,0.04 -0.02,0.05c0,0.02 -0.01,0.04 -0.01,0.06c-0.01,0.02 -0.02,0.04 -0.02,0.06c-0.01,0.02 -0.02,0.04 -0.03,0.05c-0.01,0.02 -0.02,0.04 -0.03,0.06c-0.01,0.01 -0.02,0.03 -0.03,0.05c-0.01,0.02 -0.02,0.03 -0.03,0.05c-0.01,0.01 -0.02,0.03 -0.04,0.05c-0.01,0.01 -0.02,0.03 -0.03,0.04c-0.02,0.02 -0.03,0.03 -0.05,0.05c-0.01,0.01 -0.02,0.02 -0.04,0.04c-0.02,0.01 -0.03,0.02 -0.05,0.03c-0.01,0.02 -0.03,0.03 -0.05,0.04l-11.17,7.52l11.23,8.69c0.01,0.02 0.03,0.03 0.04,0.04c0.02,0.02 0.03,0.03 0.05,0.04c0.01,0.02 0.03,0.03 0.04,0.05c0.01,0.01 0.02,0.03 0.04,0.04c0.01,0.02 0.02,0.03 0.03,0.05c0.01,0.02 0.03,0.03 0.04,0.05c0.01,0.02 0.02,0.03 0.03,0.05c0.01,0.02 0.01,0.04 0.02,0.06c0.01,0.01 0.02,0.03 0.03,0.05c0,0.02 0.01,0.04 0.02,0.06c0,0.02 0.01,0.04 0.01,0.05c0.01,0.02 0.01,0.04 0.02,0.06c0,0.02 0,0.04 0.01,0.06c0,0.02 0,0.04 0,0.06c0,0.02 0,0.04 0,0.06c0.01,0.02 0,0.04 0,0.06c0,0.02 0,0.04 0,0.06c0,0.02 -0.01,0.04 -0.01,0.06c0,0.02 -0.01,0.04 -0.01,0.06c-0.01,0.02 -0.01,0.04 -0.02,0.06c0,0.02 -0.01,0.04 -0.01,0.05c-0.01,0.02 -0.02,0.04 -0.03,0.06c0,0.02 -0.01,0.04 -0.02,0.05c-0.01,0.02 -0.02,0.04 -0.03,0.06c-0.01,0.01 -0.02,0.03 -0.03,0.05c-0.01,0.01 -0.02,0.03 -0.04,0.05c-0.01,0.01 -0.02,0.03 -0.03,0.04c-0.02,0.02 -0.03,0.03 -0.04,0.05c-0.02,0.01 -0.03,0.03 -0.05,0.04c-0.01,0.01 -0.03,0.03 -0.04,0.04c-0.02,0.01 -0.03,0.02 -0.05,0.04c-0.02,0.01 -0.03,0.02 -0.05,0.03l-14.21,9.02c-0.02,0.01 -0.04,0.02 -0.06,0.03c-0.02,0.01 -0.04,0.02 -0.06,0.03c-0.02,0.01 -0.04,0.02 -0.06,0.03c-0.02,0 -0.04,0.01 -0.06,0.02c-0.02,0 -0.04,0.01 -0.07,0.02c-0.02,0 -0.04,0 -0.06,0.01c-0.02,0 -0.05,0 -0.07,0.01c-0.02,0 -0.04,0 -0.06,0c-0.03,0 -0.05,0 -0.07,0c-0.02,0 -0.05,0 -0.07,0c-0.02,-0.01 -0.04,-0.01 -0.06,-0.01c-0.03,-0.01 -0.05,-0.01 -0.07,-0.02c-0.02,0 -0.04,-0.01 -0.06,-0.01c-0.02,-0.01 -0.05,-0.02 -0.07,-0.03c-0.02,0 -0.04,-0.01 -0.06,-0.02c-0.02,-0.01 -0.04,-0.02 -0.06,-0.03c-0.02,-0.01 -0.04,-0.02 -0.06,-0.04c-0.01,-0.01 -0.03,-0.02 -0.05,-0.03c-0.02,-0.02 -0.04,-0.03 -0.05,-0.05c-0.02,-0.01 -0.04,-0.02 -0.05,-0.04c-0.02,-0.02 -0.03,-0.03 -0.05,-0.05c-0.01,-0.01 -0.03,-0.03 -0.04,-0.05c-0.02,-0.02 -0.03,-0.03 -0.04,-0.05c-0.01,-0.02 -0.03,-0.04 -0.04,-0.06c-0.01,-0.02 -0.02,-0.04 -0.03,-0.06c-0.01,-0.02 -0.02,-0.04 -0.03,-0.06c-0.01,-0.02 -0.01,-0.04 -0.02,-0.06c-0.01,-0.02 -0.02,-0.04 -0.02,-0.07c-0.01,-0.02 -0.01,-0.04 -0.02,-0.06c0,-0.02 0,-0.04 -0.01,-0.07c0,-0.02 0,-0.04 0,-0.06c-0.01,-0.02 -0.01,-0.05 -0.01,-0.07l0.02,-15.42l-10.46,7.05c-0.01,0.01 -0.03,0.01 -0.04,0.02c-0.01,0.01 -0.03,0.02 -0.04,0.03c-0.02,0 -0.03,0.01 -0.05,0.02c-0.01,0.01 -0.03,0.01 -0.04,0.02c-0.02,0.01 -0.03,0.01 -0.05,0.02c-0.01,0 -0.03,0.01 -0.04,0.01c-0.02,0.01 -0.03,0.01 -0.05,0.02c-0.01,0 -0.03,0 -0.05,0.01c-0.01,0 -0.03,0 -0.04,0c-0.02,0.01 -0.04,0.01 -0.05,0.01c-0.02,0 -0.03,0 -0.05,0.01c-0.02,0 -0.03,0 -0.05,0c-0.02,0 -0.03,0 -0.05,0c-0.01,0 -0.03,-0.01 -0.05,-0.01c-0.01,0 -0.03,0 -0.04,0c-0.02,0 -0.04,-0.01 -0.05,-0.01c-0.02,0 -0.03,-0.01 -0.05,-0.01c-0.02,0 -0.03,-0.01 -0.05,-0.01c-0.01,-0.01 -0.03,-0.01 -0.04,-0.02c-0.02,0 -0.03,-0.01 -0.05,-0.01c-0.01,-0.01 -0.03,-0.02 -0.04,-0.02c-0.02,-0.01 -0.03,-0.02 -0.05,-0.03c-0.01,0 -0.03,-0.01 -0.04,-0.02c-0.01,-0.01 -0.03,-0.02 -0.04,-0.02c-0.02,-0.01 -0.03,-0.02 -0.04,-0.03c-0.01,-0.01 -0.03,-0.02 -0.04,-0.03c-0.01,-0.01 -0.03,-0.02 -0.04,-0.03c-0.01,-0.01 -0.02,-0.02 -0.03,-0.04c-0.02,-0.01 -0.03,-0.02 -0.04,-0.03c-0.01,-0.01 -0.02,-0.02 -0.03,-0.04c-0.01,-0.01 -0.02,-0.02 -0.03,-0.03c-0.01,-0.02 -0.02,-0.03 -0.03,-0.04l-0.57,-0.82c-0.01,-0.02 -0.01,-0.03 -0.02,-0.04c-0.01,-0.02 -0.02,-0.03 -0.03,-0.05c-0.01,-0.01 -0.01,-0.03 -0.02,-0.04c-0.01,-0.02 -0.02,-0.03 -0.02,-0.05c-0.01,-0.01 -0.01,-0.03 -0.02,-0.04c-0.01,-0.02 -0.01,-0.03 -0.02,-0.05c0,-0.01 -0.01,-0.03 -0.01,-0.05c0,-0.01 -0.01,-0.03 -0.01,-0.04c-0.01,-0.02 -0.01,-0.04 -0.01,-0.05c0,-0.02 -0.01,-0.03 -0.01,-0.05c0,-0.02 0,-0.03 0,-0.05c0,-0.02 0,-0.03 0,-0.05c0,-0.02 0,-0.03 0,-0.05c0,-0.02 0,-0.03 0,-0.05c0,-0.02 0,-0.03 0.01,-0.05c0,-0.01 0,-0.03 0,-0.05c0.01,-0.01 0.01,-0.03 0.01,-0.05c0.01,-0.01 0.01,-0.03 0.02,-0.04c0,-0.02 0.01,-0.03 0.01,-0.05c0.01,-0.02 0.01,-0.03 0.02,-0.05c0.01,-0.01 0.01,-0.03 0.02,-0.04c0.01,-0.02 0.01,-0.03 0.02,-0.05c0.01,-0.01 0.02,-0.03 0.02,-0.04c0.01,-0.01 0.02,-0.03 0.03,-0.04c0.01,-0.02 0.02,-0.03 0.03,-0.04c0.01,-0.02 0.02,-0.03 0.03,-0.04c0.01,-0.01 0.02,-0.03 0.03,-0.04c0.01,-0.01 0.02,-0.02 0.04,-0.04c0.01,-0.01 0.02,-0.02 0.03,-0.03c0.01,-0.01 0.03,-0.02 0.04,-0.03c0.01,-0.01 0.02,-0.02 0.04,-0.03c0.01,-0.01 0.02,-0.02 0.04,-0.03l11.6,-7.81l-11.72,-9.08c-0.02,-0.01 -0.03,-0.02 -0.04,-0.03c-0.01,-0.01 -0.03,-0.02 -0.04,-0.03c-0.01,-0.01 -0.02,-0.02 -0.03,-0.04c-0.01,-0.01 -0.02,-0.02 -0.04,-0.03c-0.01,-0.02 -0.02,-0.03 -0.03,-0.04c-0.01,-0.01 -0.02,-0.03 -0.03,-0.04c-0.01,-0.01 -0.02,-0.03 -0.02,-0.04c-0.01,-0.02 -0.02,-0.03 -0.03,-0.04c-0.01,-0.02 -0.02,-0.03 -0.02,-0.05c-0.01,-0.01 -0.02,-0.03 -0.02,-0.04c-0.01,-0.02 -0.02,-0.03 -0.02,-0.05c-0.01,-0.01 -0.01,-0.03 -0.02,-0.05c-0.01,-0.01 -0.01,-0.03 -0.01,-0.04c-0.01,-0.02 -0.01,-0.04 -0.02,-0.05c0,-0.02 0,-0.03 -0.01,-0.05c0,-0.02 0,-0.03 0,-0.05c0,-0.02 -0.01,-0.03 -0.01,-0.05c0,-0.01 0,-0.03 0,-0.05c0,-0.01 0,-0.03 0,-0.05c0,-0.01 0,-0.03 0,-0.05c0,-0.01 0.01,-0.03 0.01,-0.05c0,-0.01 0,-0.03 0.01,-0.04c0,-0.02 0,-0.04 0.01,-0.05c0,-0.02 0,-0.04 0.01,-0.05c0,-0.02 0.01,-0.03 0.01,-0.05c0.01,-0.01 0.01,-0.03 0.02,-0.05c0.01,-0.01 0.01,-0.03 0.02,-0.04c0.01,-0.02 0.01,-0.03 0.02,-0.05c0.01,-0.01 0.02,-0.02 0.02,-0.04c0.01,-0.01 0.02,-0.03 0.03,-0.04c0.01,-0.01 0.02,-0.03 0.03,-0.04c0.01,-0.02 0.02,-0.03 0.03,-0.04z"></path></g></g><g opacity="1"  transform="translate(164 7)  rotate(0)"><mask id="bg-mask-1" fill="white"><use transform="translate(0 0)  rotate(0)" xlink:href="#path_1"></use></mask><g mask="url(#bg-mask-1)" ><path id="路径 1" fill-rule="evenodd" style="fill:#383838" opacity="1" d="M35.2985,30.2958c0.17,0.14 0.19,0.39 0.05,0.55l-1.76,2.09c-0.14,0.17 -0.39,0.19 -0.56,0.05c-2.12,-1.87 -4.92,-3.01 -7.98,-3.01c-3.06,0 -5.85,1.14 -7.98,3.01c-0.17,0.14 -0.42,0.12 -0.56,-0.04l-1.76,-2.1c-0.13,-0.16 -0.11,-0.41 0.04,-0.54c2.75,-2.4 6.33,-3.84 10.26,-3.84c3.93,0 7.51,1.44 10.25,3.83zM41.0385,23.4558c0.16,0.14 0.18,0.39 0.05,0.55l-1.76,2.1c-0.14,0.16 -0.38,0.18 -0.55,0.05c-3.72,-3.1 -8.51,-4.96 -13.73,-4.96c-5.22,0 -10.01,1.86 -13.73,4.96c-0.17,0.13 -0.41,0.11 -0.55,-0.05l-1.75998,-2.1c-0.14,-0.16 -0.12,-0.41 0.05,-0.55c4.33998,-3.61 9.90998,-5.78 15.98998,-5.78c6.08,0 11.66,2.17 15.99,5.78z"></path><path id="路径 2" fill-rule="evenodd" style="fill:#383838" opacity="1" d="M24.9503 8.88672C16.7403 8.88672 9.20026 11.7667 3.29026 16.5767C3.11026 16.7067 3.09026 16.9567 3.23026 17.1267L4.99026 19.2267C5.13026 19.3867 5.37026 19.4067 5.53026 19.2767C10.8403 14.9767 17.5903 12.4067 24.9503 12.4067C32.3603 12.4067 39.1603 15.0167 44.4802 19.3667C44.6502 19.5067 44.8902 19.4867 45.0302 19.3167L46.7902 17.2167C46.9302 17.0567 46.9002 16.8067 46.7302 16.6667C40.8102 11.8067 33.2203 8.88672 24.9503 8.88672Z"></path><path id="路径 3" fill-rule="evenodd" style="fill:#383838" opacity="1" d="M21.875 38.1433C21.885 38.1933 21.885 38.2433 21.895 38.2933C21.895 38.3433 21.905 38.3933 21.905 38.4433C21.915 38.4933 21.925 38.5433 21.935 38.5933C21.945 38.6433 21.955 38.6933 21.965 38.7433C21.985 38.7933 21.995 38.8433 22.005 38.8933C22.025 38.9433 22.045 38.9933 22.055 39.0433C22.075 39.0933 22.095 39.1333 22.115 39.1833C22.135 39.2333 22.155 39.2733 22.175 39.3233C22.195 39.3733 22.215 39.4133 22.245 39.4633C22.265 39.5033 22.295 39.5533 22.315 39.5933C22.345 39.6433 22.375 39.6833 22.405 39.7233C22.435 39.7633 22.455 39.8133 22.485 39.8533C22.525 39.8933 22.555 39.9333 22.585 39.9733C22.615 40.0133 22.655 40.0533 22.685 40.0833C22.715 40.1233 22.755 40.1633 22.795 40.1933C22.825 40.2333 22.865 40.2733 22.905 40.3033C22.935 40.3333 22.975 40.3733 23.015 40.4033C23.055 40.4333 23.095 40.4633 23.135 40.5033C23.175 40.5333 23.225 40.5533 23.265 40.5833C23.305 40.6133 23.345 40.6433 23.395 40.6733C23.435 40.6933 23.485 40.7233 23.525 40.7433C23.575 40.7733 23.615 40.7933 23.665 40.8133C23.715 40.8333 23.755 40.8533 23.805 40.8733C23.855 40.8933 23.895 40.9133 23.945 40.9333C23.995 40.9433 24.045 40.9633 24.095 40.9833C24.145 40.9933 24.195 41.0033 24.245 41.0233C24.295 41.0333 24.345 41.0433 24.395 41.0533C24.445 41.0633 24.495 41.0733 24.545 41.0833C24.595 41.0833 24.645 41.0933 24.695 41.0933C24.745 41.1033 24.795 41.1033 24.845 41.1133C24.895 41.1133 24.945 41.1133 25.005 41.1133C25.055 41.1133 25.105 41.1133 25.155 41.1133C25.205 41.1033 25.255 41.1033 25.305 41.0933C25.355 41.0933 25.405 41.0833 25.455 41.0833C25.505 41.0733 25.555 41.0633 25.605 41.0533C25.655 41.0433 25.705 41.0333 25.755 41.0233C25.805 41.0033 25.855 40.9933 25.905 40.9833C25.955 40.9633 26.005 40.9433 26.055 40.9333C26.105 40.9133 26.145 40.8933 26.195 40.8733C26.245 40.8533 26.285 40.8333 26.335 40.8133C26.385 40.7933 26.425 40.7733 26.475 40.7433C26.515 40.7233 26.565 40.6933 26.605 40.6733C26.655 40.6433 26.695 40.6133 26.735 40.5833C26.775 40.5533 26.825 40.5333 26.865 40.5033C26.905 40.4633 26.945 40.4333 26.985 40.4033C27.025 40.3733 27.065 40.3333 27.095 40.3033C27.135 40.2733 27.175 40.2333 27.205 40.1933C27.245 40.1633 27.285 40.1233 27.315 40.0833C27.345 40.0533 27.385 40.0133 27.415 39.9733C27.445 39.9333 27.475 39.8933 27.515 39.8533C27.545 39.8133 27.565 39.7633 27.595 39.7233C27.625 39.6833 27.655 39.6433 27.685 39.5933C27.705 39.5533 27.735 39.5033 27.755 39.4633C27.785 39.4133 27.805 39.3733 27.825 39.3233C27.845 39.2733 27.865 39.2333 27.885 39.1833C27.905 39.1333 27.925 39.0933 27.945 39.0433C27.955 38.9933 27.975 38.9433 27.995 38.8933C28.005 38.8433 28.015 38.7933 28.035 38.7433C28.045 38.6933 28.055 38.6433 28.065 38.5933C28.075 38.5433 28.085 38.4933 28.095 38.4433C28.095 38.3933 28.105 38.3433 28.105 38.2933C28.115 38.2433 28.115 38.1933 28.125 38.1433C28.125 38.0933 28.125 38.0433 28.125 37.9933C28.125 37.9333 28.125 37.8833 28.125 37.8333C28.115 37.7833 28.115 37.7333 28.105 37.6833C28.105 37.6333 28.095 37.5833 28.095 37.5333C28.085 37.4833 28.075 37.4333 28.065 37.3833C28.055 37.3333 28.045 37.2833 28.035 37.2333C28.015 37.1833 28.005 37.1333 27.995 37.0833C27.975 37.0333 27.955 36.9833 27.945 36.9333C27.925 36.8833 27.905 36.8433 27.885 36.7933C27.865 36.7433 27.845 36.7033 27.825 36.6533C27.805 36.6033 27.785 36.5633 27.755 36.5133C27.735 36.4733 27.705 36.4233 27.685 36.3833C27.655 36.3333 27.625 36.2933 27.595 36.2533C27.565 36.2133 27.545 36.1633 27.515 36.1233C27.475 36.0833 27.445 36.0433 27.415 36.0033C27.385 35.9633 27.345 35.9233 27.315 35.8933C27.285 35.8533 27.245 35.8133 27.205 35.7833C27.175 35.7433 27.135 35.7033 27.095 35.6733C27.065 35.6433 27.025 35.6033 26.985 35.5733C26.945 35.5433 26.905 35.5133 26.865 35.4733C26.825 35.4433 26.775 35.4233 26.735 35.3933C26.695 35.3633 26.655 35.3333 26.605 35.3033C26.565 35.2833 26.515 35.2533 26.475 35.2333C26.425 35.2033 26.385 35.1833 26.335 35.1633C26.285 35.1433 26.245 35.1233 26.195 35.1033C26.145 35.0833 26.105 35.0633 26.055 35.0433C26.005 35.0333 25.955 35.0133 25.905 34.9933C25.855 34.9833 25.805 34.9733 25.755 34.9533C25.705 34.9433 25.655 34.9333 25.605 34.9233C25.555 34.9133 25.505 34.9033 25.455 34.8933C25.405 34.8933 25.355 34.8833 25.305 34.8833C25.255 34.8733 25.205 34.8733 25.155 34.8633C25.105 34.8633 25.055 34.8633 25.005 34.8633C24.945 34.8633 24.895 34.8633 24.845 34.8633C24.795 34.8733 24.745 34.8733 24.695 34.8833C24.645 34.8833 24.595 34.8933 24.545 34.8933C24.495 34.9033 24.445 34.9133 24.395 34.9233C24.345 34.9333 24.295 34.9433 24.245 34.9533C24.195 34.9733 24.145 34.9833 24.095 34.9933C24.045 35.0133 23.995 35.0333 23.945 35.0433C23.895 35.0633 23.855 35.0833 23.805 35.1033C23.755 35.1233 23.715 35.1433 23.665 35.1633C23.615 35.1833 23.575 35.2033 23.525 35.2333C23.485 35.2533 23.435 35.2833 23.395 35.3033C23.345 35.3333 23.305 35.3633 23.265 35.3933C23.225 35.4233 23.175 35.4433 23.135 35.4733C23.095 35.5133 23.055 35.5433 23.015 35.5733C22.975 35.6033 22.935 35.6433 22.905 35.6733C22.865 35.7033 22.825 35.7433 22.795 35.7833C22.755 35.8133 22.715 35.8533 22.685 35.8933C22.655 35.9233 22.615 35.9633 22.585 36.0033C22.555 36.0433 22.525 36.0833 22.485 36.1233C22.455 36.1633 22.435 36.2133 22.405 36.2533C22.375 36.2933 22.345 36.3333 22.315 36.3833C22.295 36.4233 22.265 36.4733 22.245 36.5133C22.215 36.5633 22.195 36.6033 22.175 36.6533C22.155 36.7033 22.135 36.7433 22.115 36.7933C22.095 36.8433 22.075 36.8833 22.055 36.9333C22.045 36.9833 22.025 37.0333 22.005 37.0833C21.995 37.1333 21.985 37.1833 21.965 37.2333C21.955 37.2833 21.945 37.3333 21.935 37.3833C21.925 37.4333 21.915 37.4833 21.905 37.5333C21.905 37.5833 21.895 37.6333 21.895 37.6833C21.885 37.7333 21.885 37.7833 21.875 37.8333C21.875 37.8833 21.875 37.9333 21.875 37.9933C21.875 38.0433 21.875 38.0933 21.875 38.1433Z"></path></g></g><path  id="箭头 1" style="fill:#383838; opacity:1;" d="M146.999,32.0698c-0.038,2.2088 -1.86,3.9681 -4.069,3.9296c-1.839,-0.0321 -3.367,-1.3006 -3.804,-2.9994h-68.126v-2h68.126c0.451,-1.7519 2.056,-3.0323 3.944,-2.9994c2.209,0.0386 3.968,1.8604 3.929,4.0692zM142.965,33.9997c1.104,0.0193 2.015,-0.8604 2.035,-1.9648c0.019,-1.1044 -0.861,-2.0153 -1.965,-2.0346c-1.104,-0.0193 -2.015,0.8604 -2.035,1.9648c-0.019,1.1044 0.861,2.0153 1.965,2.0346z"></path></g><defs><rect id="path_0" x="0" y="0" width="64" height="64" /><rect id="path_1" x="0" y="0" width="50" height="50" /></defs></svg>